<?xml version="1.0" standalone="no"?>
<!DOCTYPE svg PUBLIC "-//W3C//DTD SVG 20010904//EN"
 "http://www.w3.org/TR/2001/REC-SVG-20010904/DTD/svg10.dtd">
<svg version="1.0" xmlns="http://www.w3.org/2000/svg"
 width="252.000000pt" height="277.000000pt" viewBox="0 0 252.000000 277.000000"
 preserveAspectRatio="xMidYMid meet">

<g transform="translate(0.000000,277.000000) scale(0.100000,-0.100000)"
fill="#000000" stroke="none">
<path d="M1179 2717 c-35 -19 -176 -99 -314 -179 -137 -79 -367 -212 -509
-294 -188 -108 -264 -157 -277 -179 -18 -28 -19 -66 -19 -692 l0 -663 27 -29
c16 -17 186 -121 378 -232 193 -110 440 -253 550 -317 177 -103 205 -117 245
-116 40 0 91 27 480 253 239 139 490 285 558 324 129 73 150 93 158 148 11 74
-1 84 -402 315 -203 117 -388 224 -410 238 l-42 24 -4 74 c-7 133 -79 241
-197 297 -47 22 -70 26 -146 26 -78 0 -97 -4 -146 -28 -62 -30 -127 -93 -157
-154 -104 -205 20 -449 251 -492 73 -13 142 -1 221 39 l59 30 281 -162 c155
-89 293 -169 308 -178 l27 -16 -122 -71 c-67 -38 -256 -147 -420 -242 l-298
-173 -127 73 c-70 40 -266 153 -437 252 -170 98 -329 190 -352 203 l-43 25 0
557 0 557 198 114 c108 63 233 135 277 161 44 26 171 99 282 163 l201 117 89
-53 c50 -28 266 -153 481 -277 l391 -225 1 -293 c0 -322 3 -337 60 -367 59
-30 118 -14 157 44 23 34 23 37 23 368 0 280 -3 340 -15 367 -17 35 -23 39
-455 288 -129 75 -336 194 -460 266 -124 71 -239 133 -256 136 -24 5 -45 -1
-95 -27z"/>
</g>
</svg>
